{
  "source": "C:\\Users\\Peter\\Desktop\\stuff\\MIUN\\quantitative_research\\video_compression\\videos\\BVI-HD\\BVI-HD_CDVL_videos\\ORIG\\Diver_1920x1080_30fps.mp4",
  "output": "C:\\Users\\Peter\\Desktop\\stuff\\MIUN\\quantitative_research\\video_compression\\compressed_videos\\BVI-HD\\h264\\3\\Diver_1920x1080_30fps_h264.mp4",
  "codec": "h264",
  "ok": "Input #0, mov,mp4,m4a,3gp,3g2,mj2, from 'C:\\Users\\Peter\\Desktop\\stuff\\MIUN\\quantitative_research\\video_compression\\videos\\BVI-HD\\BVI-HD_CDVL_videos\\ORIG\\Diver_1920x1080_30fps.mp4':\n  Metadata:\n    major_brand     : isom\n    minor_version   : 512\n    compatible_brands: isomiso2avc1mp41\n    encoder         : Lavf54.28.101\n  Duration: 00:00:05.00, start: 0.000000, bitrate: 196798 kb/s\n  Stream #0:0[0x1](und): Video: h264 (High 4:4:4 Predictive) (avc1 / 0x31637661), yuv420p(progressive), 1920x1080, 196794 kb/s, 30 fps, 30 tbr, 30 tbn (default)\n    Metadata:\n      handler_name    : VideoHandler\n      vendor_id       : [0][0][0][0]\n[out#0/mp4 @ 00000260d8b09cc0] Codec AVOption b:a (set bitrate (in bits/s)) has not been used for any stream. The most likely reason is either wrong type (e.g. a video option with no video streams) or that it is a private option of some decoder which was not actually used for any stream.\nStream mapping:\n  Stream #0:0 -> #0:0 (h264 (native) -> h264 (libx264))\nPress [q] to stop, [?] for help\n[libx264 @ 00000260d8b0df00] using cpu capabilities: MMX2 SSE2Fast SSSE3 SSE4.2 AVX FMA3 BMI2 AVX2\n[libx264 @ 00000260d8b0df00] profile High, level 5.0, 4:2:0, 8-bit\n[libx264 @ 00000260d8b0df00] 264 - core 165 r3222 b35605a - H.264/MPEG-4 AVC codec - Copyleft 2003-2025 - http://www.videolan.org/x264.html - options: cabac=1 ref=5 deblock=1:0:0 analyse=0x3:0x113 me=hex subme=8 psy=1 psy_rd=1.00:0.00 mixed_ref=1 me_range=16 chroma_me=1 trellis=2 8x8dct=1 cqm=0 deadzone=21,11 fast_pskip=1 chroma_qp_offset=-2 threads=18 lookahead_threads=3 sliced_threads=0 nr=0 decimate=1 interlaced=0 bluray_compat=0 constrained_intra=0 bframes=3 b_pyramid=2 b_adapt=1 b_bias=0 direct=3 weightb=1 open_gop=0 weightp=2 keyint=250 keyint_min=25 scenecut=40 intra_refresh=0 rc_lookahead=50 rc=cbr mbtree=1 bitrate=3000 ratetol=1.0 qcomp=0.60 qpmin=0 qpmax=69 qpstep=4 vbv_maxrate=3000 vbv_bufsize=3000 nal_hrd=none filler=0 ip_ratio=1.40 aq=1:1.00\nOutput #0, mp4, to 'C:\\Users\\Peter\\Desktop\\stuff\\MIUN\\quantitative_research\\video_compression\\compressed_videos\\BVI-HD\\h264\\3\\Diver_1920x1080_30fps_h264.mp4':\n  Metadata:\n    major_brand     : isom\n    minor_version   : 512\n    compatible_brands: isomiso2avc1mp41\n    encoder         : Lavf62.3.100\n  Stream #0:0(und): Video: h264 (avc1 / 0x31637661), yuv420p(tv, progressive), 1920x1080, q=2-31, 3000 kb/s, 30 fps, 15360 tbn (default)\n    Metadata:\n      encoder         : Lavc62.11.100 libx264\n      handler_name    : VideoHandler\n      vendor_id       : [0][0][0][0]\n    Side data:\n      cpb: bitrate max/min/avg: 3000000/0/3000000 buffer size: 3000000 vbv_delay: N/A\nframe=    0 fps=0.0 q=0.0 size=       0KiB time=N/A bitrate=N/A speed=N/A elapsed=0:00:00.53    \nframe=    0 fps=0.0 q=0.0 size=       0KiB time=N/A bitrate=N/A speed=N/A elapsed=0:00:01.11    \nframe=    0 fps=0.0 q=0.0 size=       0KiB time=N/A bitrate=N/A speed=N/A elapsed=0:00:01.64    \nframe=   23 fps= 10 q=29.0 size=       0KiB time=00:00:00.63 bitrate=   0.6kbits/s speed=0.285x elapsed=0:00:02.22    \nframe=   37 fps= 13 q=30.0 size=       0KiB time=00:00:01.10 bitrate=   0.3kbits/s speed=0.39x elapsed=0:00:02.81    \nframe=   57 fps= 17 q=31.0 size=     256KiB time=00:00:01.83 bitrate=1144.1kbits/s speed=0.535x elapsed=0:00:03.42    \nframe=   77 fps= 19 q=31.0 size=     512KiB time=00:00:02.46 bitrate=1700.5kbits/s speed=0.618x elapsed=0:00:03.99    \nframe=   85 fps= 19 q=31.0 size=     768KiB time=00:00:02.76 bitrate=2274.2kbits/s speed=0.607x elapsed=0:00:04.55    \nframe=  105 fps= 21 q=31.0 size=    1024KiB time=00:00:03.43 bitrate=2443.4kbits/s speed=0.674x elapsed=0:00:05.09    \nframe=  121 fps= 22 q=30.0 size=    1280KiB time=00:00:03.96 bitrate=2643.6kbits/s speed=0.706x elapsed=0:00:05.61    \nframe=  145 fps= 24 q=-1.0 size=    1536KiB time=00:00:04.76 bitrate=2639.9kbits/s speed=0.778x elapsed=0:00:06.12    \n[mp4 @ 00000260d8b0c440] Starting second pass: moving the moov atom to the beginning of the file\n[out#0/mp4 @ 00000260d8b09cc0] video:1753KiB audio:0KiB subtitle:0KiB other streams:0KiB global headers:0KiB muxing overhead: 0.149015%\nframe=  150 fps= 24 q=-1.0 Lsize=    1756KiB time=00:00:04.93 bitrate=2915.3kbits/s speed=0.799x elapsed=0:00:06.17    \n[libx264 @ 00000260d8b0df00] frame I:1     Avg QP:27.03  size: 15181\n[libx264 @ 00000260d8b0df00] frame P:38    Avg QP:26.21  size: 20925\n[libx264 @ 00000260d8b0df00] frame B:111   Avg QP:27.62  size:  8865\n[libx264 @ 00000260d8b0df00] consecutive B-frames:  1.3%  0.0%  0.0% 98.7%\n[libx264 @ 00000260d8b0df00] mb I  I16..4: 81.5% 17.2%  1.2%\n[libx264 @ 00000260d8b0df00] mb P  I16..4:  3.0%  5.8%  0.3%  P16..4: 49.5%  5.4%  7.7%  0.0%  0.0%    skip:28.4%\n[libx264 @ 00000260d8b0df00] mb B  I16..4:  0.1%  0.6%  0.0%  B16..8: 43.6%  2.6%  0.3%  direct: 1.7%  skip:51.1%  L0:45.1% L1:53.3% BI: 1.6%\n[libx264 @ 00000260d8b0df00] 8x8 transform intra:57.6% inter:87.9%\n[libx264 @ 00000260d8b0df00] direct mvs  spatial:91.0% temporal:9.0%\n[libx264 @ 00000260d8b0df00] coded y,uvDC,uvAC intra: 38.6% 39.1% 3.1% inter: 6.0% 17.6% 0.0%\n[libx264 @ 00000260d8b0df00] i16 v,h,dc,p:  9% 24%  7% 60%\n[libx264 @ 00000260d8b0df00] i8 v,h,dc,ddl,ddr,vr,hd,vl,hu:  6%  7%  6%  9% 17% 11% 18%  9% 16%\n[libx264 @ 00000260d8b0df00] i4 v,h,dc,ddl,ddr,vr,hd,vl,hu:  7%  8% 10%  7% 16% 12% 15%  9% 16%\n[libx264 @ 00000260d8b0df00] i8c dc,h,v,p: 47% 37% 10%  6%\n[libx264 @ 00000260d8b0df00] Weighted P-Frames: Y:7.9% UV:0.0%\n[libx264 @ 00000260d8b0df00] ref P L0: 52.2%  7.8% 25.5%  7.5%  6.8%  0.2%\n[libx264 @ 00000260d8b0df00] ref B L0: 79.0% 14.9%  4.9%  1.2%\n[libx264 @ 00000260d8b0df00] ref B L1: 93.8%  6.2%\n[libx264 @ 00000260d8b0df00] kb/s:2870.98\n",
  "seconds": 6.473601579666138,
  "probe_out": {}
}